<svg xmlns="http://www.w3.org/2000/svg" style="display: none;">
  <!-- Ícono de Estudiante -->
  <symbol id="estudiante" viewBox="0 0 24 24">
    <path fill="currentColor" d="M22.004,4.498c.001-.865-.525-1.61-1.34-1.898L14.199.319c-1.386-.491-2.915-.492-4.302-.007L3.353,2.602c-.818.287-1.346,1.031-1.346,1.898,0,.866.529,1.61,1.347,1.896l2.646.923v1.681c0,3.309,2.691,6,6,6s6-2.691,6-6v-1.682l2-.698v4.379c0,.553.448,1,1,1s1-.447,1-1c0,0,.004-6.493.004-6.502Zm-6.004,4.502c0,2.206-1.794,4-4,4s-4-1.794-4-4v-.984l1.862.65c.689.24,1.413.36,2.137.36s1.448-.12,2.138-.36l1.863-.65v.984Zm-2.522-2.223c-.954.332-2.004.332-2.958,0l-6.507-2.287,6.544-2.289c.962-.337,2.019-.334,2.976.004l6.464,2.298-6.52,2.274Zm6.847,16.021c.111.541-.236,1.07-.777,1.182-.068.014-.136.021-.203.021-.464,0-.881-.325-.979-.798-.356-1.726-1.426-3.256-2.936-4.196l-2.662,3.154c-.38.455-1.156.455-1.536,0l-2.631-3.156c-1.541.942-2.611,2.472-2.967,4.198-.111.541-.641.885-1.182.777-.541-.112-.889-.641-.777-1.182.467-2.261,1.866-4.261,3.837-5.488.856-.534,1.984-.355,2.625.413l1.863,2.235,1.862-2.235c.64-.769,1.769-.948,2.624-.415,1.974,1.229,3.372,3.23,3.839,5.49Z"/>
  </symbol>

  <!-- Ícono de Libro Abierto -->
  <symbol id="libroabierto" viewBox="0 0 24 24">
    <path fill="currentColor" d="M20,17.754V3.001c0-.95-.435-1.823-1.194-2.395-.758-.572-1.715-.752-2.63-.489l-3,.857c-.446,.127-.845,.354-1.176,.651-.331-.297-.73-.524-1.176-.651L7.824,.117c-.916-.263-1.873-.083-2.63,.489-.759,.572-1.194,1.445-1.194,2.395v14.753l8,2.286,8-2.286ZM13,3.858c0-.444,.298-.839,.726-.961l3-.857c.092-.026,.185-.039,.277-.039,.214,0,.423,.069,.599,.202,.253,.191,.398,.482,.398,.798v13.245l-5,1.429V3.858Zm-2,13.816l-5-1.429V3.001c0-.316,.145-.607,.398-.798,.252-.19,.572-.25,.876-.163l3,.857c.427,.122,.725,.517,.725,.961v13.816ZM24,3V20.611l-12,3.429L0,20.611V4c0-.95,.435-1.823,1.194-2.395,.249-.188,.523-.316,.806-.418V19.103l10,2.857,10-2.857V.187c.283,.102,.558,.23,.806,.418,.759,.572,1.194,1.445,1.194,2.395Z"/>
  </symbol>

  <!-- libros apilados -->
  <symbol id="librosapilados" viewBox="0 0 24 24">
    <path fill="currentColor" d="M106.037,72.02V50.561c0-5.784-4.693-10.477-10.477-10.477c-5.787,0-10.471,4.693-10.471,10.477v212.805
		c0,0.846,0.127,1.662,0.313,2.453c-0.012,17.449-0.018,34.909-0.023,51.524H77.94c-15.737,0-28.611,12.354-29.524,27.869
		c0.012,0.946,0.024,1.661,0.036,2.128c0.006,0.284-0.042,0.55-0.059,0.828c0.636,15.77,13.63,28.406,29.548,28.406h7.457
		c0.006,7.855,0.018,14.919,0.03,20.954h-9.073c-0.544,0-1.064-0.077-1.596-0.159c-26.403-1.649-47.393-23.59-47.393-50.407
		c0-0.608,0.071-1.2,0.088-1.809c-0.319-31.114,0-267.743,0.039-293.496c-0.044-0.364-0.115-0.718-0.115-1.091
		C27.376,22.683,50.062,0,77.946,0h16.742h254.048h2.56c5.786,0,10.479,4.69,10.479,10.477v40.164H156.949
		C137.045,50.628,119.014,58.836,106.037,72.02z M130.035,418.399c0.012,0.945,0.023,1.667,0.035,2.128
		c0,0.283-0.047,0.556-0.059,0.839c0.635,15.759,13.63,28.401,29.554,28.401h262.89v-28.957c0-5.792,4.693-10.479,10.48-10.479
		c5.786,0,10.474,4.688,10.474,10.479v39.438c0,5.78-4.688,10.474-10.474,10.474H157.981c-0.553,0-1.073-0.077-1.599-0.166
		c-26.4-1.649-47.393-23.59-47.393-50.401c0-0.608,0.074-1.205,0.092-1.814c-0.322-31.114,0-267.739,0.036-293.493
		c-0.042-0.37-0.116-0.721-0.116-1.097c0-27.878,22.686-50.563,50.57-50.563h16.742h254.051h2.565
		c5.786,0,10.474,4.69,10.474,10.477v296.114c0,5.78-4.688,10.474-10.474,10.474c-0.06,0-0.125-0.018-0.184-0.018
		c-0.769,0.184-1.566,0.302-2.394,0.302H159.559C143.821,390.536,130.948,402.89,130.035,418.399z M166.708,336.553
		c0,5.787,4.69,10.48,10.477,10.48c5.786,0,10.477-4.693,10.477-10.48V123.75c0-5.787-4.69-10.477-10.477-10.477
		c-5.787,0-10.477,4.69-10.477,10.477V336.553z"/>
  </symbol>

  <!-- cuadernillo -->
  <symbol id="cuadernillo" viewBox="0 0 24 24">
    <path fill="currentColor" d="M18.6375 9.04176L13.3875 14.2418C13.3075 14.3218 13.1876 14.3718 13.0676 14.3718H10.1075V11.3118C10.1075 11.1918 10.1575 11.0818 10.2375 11.0018L15.4376 5.84176">
  </symbol>

  <!-- Profesor -->
  <symbol fill="#000000" height="800px" width="800px" version="1.1" id="profesor" xmlns="http://www.w3.org/2000/svg" xmlns:xlink="http://www.w3.org/1999/xlink" 
	 viewBox="0 0 511.999 511.999" xml:space="preserve">
    <g>
      <g>
        <path d="M302.195,11.833H13.049C5.842,11.833,0,17.675,0,24.882v214.289c0,7.207,5.842,13.049,13.049,13.049h283.839
          l-34.352-21.329c-2.247-1.396-4.282-3.002-6.109-4.768H26.097V37.93h263.049v126.703c4.01,0.847,7.943,2.39,11.625,4.677
          l14.473,8.986V24.882C315.244,17.675,309.402,11.833,302.195,11.833z"/>
      </g>
    </g>
    <g>
      <g>
        <path d="M216.857,134.337c-4.352-3.43-10.665-2.685-14.097,1.668c-3.432,4.353-2.686,10.665,1.668,14.097l44.279,34.914
          c0.63-1.371,1.34-2.719,2.156-4.034c2.883-4.643,6.649-8.401,10.94-11.206L216.857,134.337z"/>
      </g>
    </g>
    <g>
      <g>
        <circle cx="419.71" cy="81.405" r="37.557"/>
      </g>
    </g>
    <g>
      <g>
        <path d="M511.33,173.609c-0.118-23.528-19.355-42.67-42.884-42.67H450.26c-17.831,46.242-11.329,29.381-22.507,58.37l4.709-23.724
          c0.346-1.744,0.067-3.555-0.79-5.113l-7.381-13.424l6.551-11.914c0.454-0.826,0.438-1.829-0.041-2.64
          c-0.479-0.811-1.352-1.308-2.293-1.308h-17.96c-0.942,0-1.813,0.497-2.293,1.308s-0.495,1.815-0.041,2.64l6.537,11.889
          l-7.367,13.4c-0.873,1.589-1.147,3.438-0.77,5.211l5.438,23.675c-3.119-8.087-21.08-52.728-23.255-58.37h-17.83
          c-23.529,0-42.766,19.141-42.884,42.67c-0.098,19.565-0.016,3.179-0.17,33.884l-36.702-22.787
          c-8.501-5.28-19.674-2.667-24.953,5.836c-5.279,8.503-2.666,19.675,5.836,24.954l64.219,39.873
          c12.028,7.47,27.609-1.167,27.68-15.304c0.036-7.091,0.292-57.809,0.334-66.275c0.013-2.092,1.714-3.776,3.805-3.769
          c2.089,0.007,3.779,1.703,3.779,3.794c-0.018,87.323-0.394,111.735-0.394,304.606c0,12.01,9.736,21.746,21.746,21.746
          s21.746-9.736,21.746-21.746V304.604h9.388v173.817c0,12.01,9.736,21.746,21.746,21.746s21.746-9.736,21.746-21.746l0.008-304.612
          c0-1.981,1.604-3.589,3.586-3.595c1.981-0.006,3.595,1.594,3.605,3.577l0.669,133.132c0.05,9.977,8.154,18.03,18.119,18.03
          c0.031,0,0.062,0,0.094,0c10.007-0.05,18.081-8.205,18.03-18.212L511.33,173.609z"/>
      </g>
    </g>
  </symbol>

  <!-- Notas -->
  <symbol width="800px" height="800px" viewBox="-0.5 0 25 25" id="notas" fill="black" xmlns="http://www.w3.org/2000/svg">
    <path d="M18.6375 9.04176L13.3875 14.2418C13.3075 14.3218 13.1876 14.3718 13.0676 14.3718H10.1075V11.3118C10.1075 11.1918 10.1575 11.0818 10.2375 11.0018L15.4376 5.84176" stroke="#0F0F0F" stroke-miterlimit="10" stroke-linecap="round" stroke-linejoin="round"/>
    <path d="M18.7076 11.9818V21.6618C18.7076 21.9018 18.5176 22.0918 18.2776 22.0918H2.84756C2.60756 22.0918 2.41754 21.9018 2.41754 21.6618V6.23176C2.41754 5.99176 2.60756 5.80176 2.84756 5.80176H12.4875" stroke="#0F0F0F" stroke-miterlimit="10" stroke-linecap="round" stroke-linejoin="round"/>
    <path d="M18.3863 2.90824L16.859 4.43558L20.0551 7.63167L21.5824 6.10433L18.3863 2.90824Z" stroke="#0F0F0F" stroke-miterlimit="10" stroke-linecap="round" stroke-linejoin="round"/>
  </symbol>

</svg>
