<svg xmlns="http://www.w3.org/2000/svg" style="display: none;">
  <!-- Ícono de Estudiante -->
  <symbol id="estudiante" viewBox="0 0 24 24">
    <path fill="currentColor" d="M22.004,4.498c.001-.865-.525-1.61-1.34-1.898L14.199.319c-1.386-.491-2.915-.492-4.302-.007L3.353,2.602c-.818.287-1.346,1.031-1.346,1.898,0,.866.529,1.61,1.347,1.896l2.646.923v1.681c0,3.309,2.691,6,6,6s6-2.691,6-6v-1.682l2-.698v4.379c0,.553.448,1,1,1s1-.447,1-1c0,0,.004-6.493.004-6.502Zm-6.004,4.502c0,2.206-1.794,4-4,4s-4-1.794-4-4v-.984l1.862.65c.689.24,1.413.36,2.137.36s1.448-.12,2.138-.36l1.863-.65v.984Zm-2.522-2.223c-.954.332-2.004.332-2.958,0l-6.507-2.287,6.544-2.289c.962-.337,2.019-.334,2.976.004l6.464,2.298-6.52,2.274Zm6.847,16.021c.111.541-.236,1.07-.777,1.182-.068.014-.136.021-.203.021-.464,0-.881-.325-.979-.798-.356-1.726-1.426-3.256-2.936-4.196l-2.662,3.154c-.38.455-1.156.455-1.536,0l-2.631-3.156c-1.541.942-2.611,2.472-2.967,4.198-.111.541-.641.885-1.182.777-.541-.112-.889-.641-.777-1.182.467-2.261,1.866-4.261,3.837-5.488.856-.534,1.984-.355,2.625.413l1.863,2.235,1.862-2.235c.64-.769,1.769-.948,2.624-.415,1.974,1.229,3.372,3.23,3.839,5.49Z"/>
  </symbol>

  <!-- Ícono de Libro Abierto -->
  <symbol id="libroabierto" viewBox="0 0 24 24">
    <path fill="currentColor" d="M20,17.754V3.001c0-.95-.435-1.823-1.194-2.395-.758-.572-1.715-.752-2.63-.489l-3,.857c-.446,.127-.845,.354-1.176,.651-.331-.297-.73-.524-1.176-.651L7.824,.117c-.916-.263-1.873-.083-2.63,.489-.759,.572-1.194,1.445-1.194,2.395v14.753l8,2.286,8-2.286ZM13,3.858c0-.444,.298-.839,.726-.961l3-.857c.092-.026,.185-.039,.277-.039,.214,0,.423,.069,.599,.202,.253,.191,.398,.482,.398,.798v13.245l-5,1.429V3.858Zm-2,13.816l-5-1.429V3.001c0-.316,.145-.607,.398-.798,.252-.19,.572-.25,.876-.163l3,.857c.427,.122,.725,.517,.725,.961v13.816ZM24,3V20.611l-12,3.429L0,20.611V4c0-.95,.435-1.823,1.194-2.395,.249-.188,.523-.316,.806-.418V19.103l10,2.857,10-2.857V.187c.283,.102,.558,.23,.806,.418,.759,.572,1.194,1.445,1.194,2.395Z"/>
  </symbol>
</svg>
